<?xml version="1.0" standalone="no"?>
<!DOCTYPE svg PUBLIC "-//W3C//DTD SVG 20010904//EN"
 "http://www.w3.org/TR/2001/REC-SVG-20010904/DTD/svg10.dtd">
<svg version="1.0" xmlns="http://www.w3.org/2000/svg"
 width="5000.000000pt" height="5000.000000pt" viewBox="0 0 5000.000000 5000.000000"
 preserveAspectRatio="xMidYMid meet">
<metadata>
Created by potrace 1.14, written by Peter Selinger 2001-2017
</metadata>
<g transform="translate(0.000000,5000.000000) scale(0.100000,-0.100000)"
fill="#000000" stroke="none">
<path d="M23340 36913 c-27 -11 -38 -29 -73 -124 -95 -253 -177 -545 -210
-749 -3 -14 -8 -45 -12 -70 -4 -25 -9 -54 -11 -64 -3 -18 -18 -126 -29 -220
-24 -195 -24 -726 -1 -866 2 -14 7 -54 11 -90 3 -36 7 -72 10 -80 2 -8 6 -35
9 -60 3 -25 8 -55 10 -66 2 -12 7 -37 10 -55 15 -98 71 -321 111 -442 192
-592 515 -1039 876 -1214 89 -43 206 -83 244 -83 20 0 26 -9 40 -57 41 -147
125 -307 204 -391 23 -24 41 -48 41 -54 0 -38 -291 -795 -431 -1119 -118 -276
-379 -822 -398 -833 -4 -3 -8 12 -9 32 -4 67 -40 303 -48 311 -6 6 16 43 63
103 175 229 198 580 62 983 -189 557 -624 1080 -1169 1406 -115 69 -156 78
-191 42 -20 -20 -25 -46 -44 -223 -4 -36 -9 -73 -10 -82 -8 -42 -19 -286 -19
-423 1 -200 14 -349 44 -500 6 -27 12 -61 15 -74 12 -64 61 -216 96 -298 85
-199 184 -348 329 -493 180 -179 358 -293 627 -399 l97 -39 13 -48 c7 -27 15
-69 18 -94 3 -25 7 -56 10 -70 8 -45 15 -142 17 -234 l1 -91 -120 -200 c-459
-765 -966 -1369 -1595 -1900 -52 -44 -101 -88 -107 -98 -37 -56 6 -162 105
-263 71 -73 140 -102 226 -95 21 1 426 402 548 541 119 136 130 149 180 210
25 30 47 57 51 60 20 17 303 403 387 528 l100 149 123 -124 c376 -379 777
-625 1205 -739 102 -27 111 -29 170 -38 22 -4 46 -9 54 -11 8 -3 35 -7 60 -9
25 -2 77 -8 115 -12 134 -15 445 -9 577 11 18 3 47 7 63 9 187 23 621 138 762
202 17 8 34 14 37 14 16 0 324 135 476 207 238 115 622 326 652 360 27 30 27
70 1 99 -53 58 -384 289 -557 388 -572 329 -1232 534 -1851 573 -186 11 -528
5 -618 -13 -12 -2 -42 -6 -67 -9 -40 -5 -94 -14 -170 -31 -14 -3 -36 -7 -50
-10 -176 -34 -455 -149 -598 -246 l-42 -29 69 138 c78 155 103 209 207 443 41
91 77 164 81 163 7 -1 53 -5 208 -19 89 -7 468 -7 560 1 127 11 201 19 264 29
14 3 46 8 71 11 25 4 72 13 105 20 33 8 72 16 87 19 15 2 31 7 35 9 5 3 25 8
47 11 72 12 340 107 481 172 275 126 532 295 744 489 98 88 259 255 316 326
33 40 62 76 65 79 12 11 151 200 202 275 102 148 229 369 332 575 102 207 119
243 177 380 17 41 37 89 44 105 99 231 339 941 337 999 -1 39 -33 69 -74 69
-43 0 -232 -14 -238 -18 -3 -2 -34 -6 -70 -10 -142 -15 -436 -69 -605 -111
-55 -14 -108 -27 -119 -29 -117 -25 -573 -184 -729 -254 -38 -17 -71 -31 -74
-31 -3 0 2 10 10 23 18 28 116 276 146 370 53 169 108 429 127 607 3 25 7 59
9 75 24 172 24 761 0 985 -2 19 -6 69 -9 110 -4 42 -8 84 -10 95 -2 11 -7 54
-10 95 -4 41 -13 120 -21 175 -23 157 -51 167 -209 79 -204 -114 -456 -289
-646 -449 -251 -211 -520 -498 -692 -737 -35 -48 -66 -87 -70 -87 -4 -1 -12
18 -18 42 -92 365 -267 720 -532 1075 -56 76 -104 139 -107 142 -3 3 -46 52
-96 110 -158 185 -337 367 -687 698 -54 50 -96 68 -128 55z m370 -501 c178
-180 286 -296 364 -392 20 -25 45 -54 55 -65 37 -42 180 -233 228 -305 206
-309 350 -649 408 -963 16 -87 16 -88 -6 -125 -122 -206 -243 -452 -310 -632
-28 -76 -33 -77 -43 -5 -9 68 -56 294 -82 398 -2 9 -6 25 -8 35 -37 144 -126
424 -186 582 -62 163 -130 338 -159 406 -16 38 -52 125 -81 194 -63 151 -70
168 -103 245 -96 225 -205 516 -263 700 -19 61 -39 120 -44 133 l-10 22 28
-20 c15 -11 110 -105 212 -208z m-171 -263 c62 -163 108 -276 290 -712 77
-187 141 -341 141 -343 0 -3 20 -55 44 -117 134 -346 248 -752 296 -1057 5
-36 12 -76 15 -90 24 -119 25 -224 2 -322 -9 -42 -19 -94 -23 -115 -3 -21 -7
-45 -9 -53 -14 -51 -23 -314 -14 -397 6 -63 7 -63 -93 -27 -393 141 -749 651
-927 1328 -32 122 -85 397 -96 501 -3 33 -8 74 -10 90 -22 175 -22 701 0 815
2 8 6 46 9 84 4 37 11 90 16 117 5 26 12 70 15 96 17 132 124 550 172 673 3 8
31 -64 63 -161 32 -97 81 -237 109 -310z m2713 -321 c-74 -123 -336 -571 -422
-723 -205 -360 -461 -854 -580 -1120 -29 -66 -63 -142 -76 -170 -12 -27 -39
-90 -59 -140 -20 -49 -42 -103 -50 -120 -42 -92 -177 -483 -228 -655 -51 -178
-76 -275 -111 -436 l-31 -141 -62 74 c-148 179 -207 387 -199 699 2 93 7 185
10 204 3 19 8 51 11 70 3 19 7 42 10 50 2 8 6 31 9 50 14 87 87 330 139 460
186 467 486 917 872 1305 239 240 414 383 700 572 44 29 81 53 83 53 2 0 -5
-15 -16 -32z m152 -123 c3 -27 8 -81 11 -120 4 -38 8 -84 10 -101 22 -189 22
-795 0 -926 -2 -13 -6 -48 -10 -78 -8 -76 -13 -110 -19 -145 -3 -16 -8 -48
-12 -70 -36 -238 -134 -536 -248 -758 -260 -504 -655 -853 -1259 -1113 -76
-33 -77 -33 -72 -11 4 13 7 30 9 38 36 200 181 698 260 894 13 33 59 147 101
253 42 106 96 236 121 288 24 52 44 97 44 99 0 10 233 479 311 625 139 263
315 576 480 855 26 44 55 95 65 112 11 18 57 97 104 175 l85 141 7 -54 c4 -30
9 -76 12 -104z m1566 -1970 c0 -6 -14 -22 -140 -159 -209 -229 -600 -617 -768
-764 -56 -50 -157 -138 -166 -147 -6 -6 -40 -36 -76 -66 -36 -30 -76 -64 -90
-76 -540 -456 -1213 -931 -2192 -1545 -195 -122 -238 -148 -238 -142 0 3 47
146 104 317 124 370 156 473 269 862 l43 150 150 61 c335 136 553 260 789 449
107 85 256 233 334 330 31 39 61 75 66 82 6 6 21 28 35 48 59 87 56 85 335
210 135 61 409 158 610 217 198 57 520 129 655 144 19 3 76 10 125 17 115 16
155 19 155 12z m-65 -322 c-93 -275 -189 -523 -291 -753 -53 -120 -213 -434
-275 -540 -288 -492 -642 -888 -1028 -1149 -108 -73 -290 -174 -406 -225 -60
-26 -123 -54 -140 -61 -131 -58 -473 -146 -655 -170 -189 -24 -286 -30 -520
-30 -194 0 -408 10 -418 19 -4 4 58 159 70 173 8 9 180 120 333 213 107 65
490 311 670 429 121 80 227 150 236 156 92 58 418 286 634 444 180 131 480
365 620 482 11 10 56 48 100 84 89 75 188 162 280 245 33 30 80 72 105 94 79
71 573 567 655 659 43 48 80 87 81 87 2 0 -21 -71 -51 -157z m-5117 -585 c51
-38 107 -81 125 -95 72 -61 278 -274 346 -358 160 -198 312 -460 391 -674 89
-242 119 -507 76 -676 -14 -55 -23 -78 -47 -127 -16 -31 -33 -59 -38 -62 -5
-4 -24 38 -41 91 -52 157 -143 388 -220 558 -31 69 -259 529 -308 620 -32 61
-87 164 -122 230 -35 66 -77 147 -95 180 -18 33 -74 140 -125 239 -105 202
-109 196 58 74z m-157 -93 c34 -66 74 -142 89 -170 15 -27 49 -93 77 -145 112
-211 147 -277 174 -327 16 -28 81 -156 144 -285 64 -128 120 -240 125 -250 19
-34 134 -297 172 -393 33 -84 128 -350 128 -361 0 -2 -17 4 -37 13 -229 95
-426 228 -567 382 -23 25 -48 53 -58 62 -32 34 -116 166 -161 254 -101 200
-160 426 -182 700 -10 128 -4 513 10 584 2 9 4 32 4 51 2 43 2 42 82 -115z
m1182 -2672 c-37 -82 -214 -432 -269 -533 -222 -408 -585 -932 -867 -1254 -29
-32 -72 -82 -97 -110 -85 -97 -255 -271 -475 -485 -14 -13 -92 60 -120 110
-16 30 -28 16 120 144 135 117 173 153 386 365 179 179 234 237 364 385 59 67
296 367 371 470 193 264 483 724 588 933 28 54 27 36 -1 -25z m1473 -268 c71
-4 131 -8 134 -10 3 -1 36 -6 73 -10 37 -3 78 -8 90 -11 12 -2 39 -6 62 -9
260 -36 742 -175 962 -277 34 -15 64 -28 68 -28 9 0 226 -108 320 -160 141
-77 361 -216 400 -253 9 -9 0 -8 -80 7 -11 2 -41 6 -66 10 -25 4 -57 9 -70 11
-13 2 -107 16 -209 30 -102 14 -196 28 -210 30 -14 2 -45 6 -70 9 -25 3 -97
12 -160 20 -63 8 -140 18 -170 21 -30 3 -71 7 -90 10 -19 2 -66 7 -105 10 -38
3 -88 8 -110 10 -22 3 -65 7 -95 9 -30 3 -89 7 -130 11 -41 3 -111 8 -155 10
-44 2 -152 7 -240 12 -197 9 -755 9 -965 0 -256 -12 -433 -24 -490 -32 -14 -2
-59 -7 -100 -10 -41 -3 -86 -8 -100 -10 -14 -2 -54 -7 -90 -10 -36 -4 -73 -9
-82 -11 -28 -5 -22 16 24 86 151 231 489 420 873 489 33 6 69 13 81 15 12 2
45 7 75 11 30 4 65 9 79 11 14 2 95 6 180 10 85 3 156 7 157 8 2 2 62 -1 209
-9z m-16 -639 c135 -4 265 -8 290 -11 25 -2 88 -6 140 -10 90 -6 137 -9 290
-20 36 -2 83 -7 105 -10 22 -2 74 -7 115 -10 41 -3 82 -8 90 -10 8 -2 44 -6
80 -10 36 -3 76 -8 90 -10 14 -2 54 -7 90 -11 36 -3 73 -8 84 -10 10 -2 44 -6
75 -9 31 -4 63 -8 71 -10 8 -2 39 -7 69 -10 30 -4 63 -9 75 -11 12 -2 41 -7
66 -10 54 -7 97 -13 130 -19 14 -2 42 -7 63 -10 20 -3 54 -7 75 -10 20 -3 48
-8 62 -10 14 -3 43 -8 65 -11 22 -3 47 -8 55 -9 8 -2 17 -4 20 -4 21 -4 -450
-247 -650 -335 -214 -95 -201 -89 -335 -139 -214 -79 -518 -163 -659 -182 -27
-3 -52 -8 -55 -9 -3 -2 -44 -7 -91 -11 -47 -3 -98 -9 -115 -12 -42 -7 -350 -6
-410 1 -51 7 -213 32 -251 40 -308 63 -664 230 -931 438 -37 29 -70 55 -73 58
-3 3 -30 25 -60 50 -30 25 -102 92 -160 150 l-105 104 55 8 c30 3 82 10 115
13 33 4 71 8 85 10 14 2 61 7 105 11 44 3 94 8 110 10 34 3 197 14 300 20 39
2 183 6 320 10 138 3 251 7 252 8 1 0 25 0 55 -1 29 0 163 -4 298 -7z"/>
<path d="M7767 24614 c-1 -1 -67 -4 -147 -7 -80 -4 -162 -9 -182 -12 -21 -3
-53 -7 -70 -9 -44 -6 -167 -31 -253 -51 -94 -22 -289 -97 -407 -156 -524 -262
-957 -774 -1215 -1438 -42 -108 -109 -317 -119 -370 -3 -14 -7 -27 -9 -31 -2
-3 -15 -57 -29 -120 -23 -110 -30 -144 -41 -200 -3 -14 -7 -36 -9 -50 -3 -14
-7 -41 -10 -60 -2 -19 -9 -69 -15 -110 -13 -96 -25 -222 -36 -375 -8 -107 -8
-598 0 -710 3 -49 7 -117 9 -150 30 -477 170 -1032 361 -1431 372 -773 936
-1242 1665 -1384 181 -35 265 -43 470 -43 161 0 309 7 370 17 14 3 43 7 65 10
22 4 51 8 65 11 14 2 36 7 50 9 97 17 304 78 377 112 17 8 34 14 38 14 37 0
406 217 470 276 11 11 36 31 55 45 52 39 219 205 281 279 30 36 56 67 59 70
32 32 195 271 242 355 59 105 128 246 172 349 39 91 126 333 142 393 2 10 19
77 38 150 33 129 79 365 91 472 4 30 8 61 10 70 1 9 6 52 10 96 4 44 8 91 11
105 23 144 23 762 -1 1030 -6 78 -16 170 -20 188 -1 9 -6 44 -10 77 -10 83
-11 88 -30 195 -9 52 -18 97 -20 100 -2 3 -6 21 -9 40 -12 75 -68 286 -107
407 -219 674 -605 1207 -1094 1513 -203 127 -502 243 -711 276 -21 3 -42 8
-45 9 -3 2 -30 7 -60 10 -30 3 -81 10 -114 14 -33 5 -96 9 -140 10 -44 1 -95
3 -113 5 -18 1 -34 1 -35 0z m253 -377 c14 -3 46 -8 72 -12 26 -3 53 -8 60
-10 7 -2 24 -6 38 -9 55 -9 159 -39 240 -68 367 -132 677 -389 922 -763 175
-266 305 -573 392 -924 33 -130 79 -372 91 -473 3 -27 7 -67 10 -90 3 -24 7
-61 10 -83 26 -233 27 -863 1 -1085 -3 -19 -7 -66 -11 -103 -3 -37 -8 -76 -10
-85 -1 -9 -6 -39 -9 -67 -45 -349 -170 -764 -321 -1065 -75 -149 -230 -397
-275 -440 -3 -3 -23 -27 -45 -55 -73 -90 -205 -217 -310 -296 -311 -233 -662
-345 -1095 -348 -138 -1 -213 4 -370 25 -64 9 -260 60 -333 88 -67 25 -211 93
-265 125 -235 137 -457 357 -639 631 -198 300 -365 725 -438 1115 -10 50 -19
99 -21 110 -7 37 -33 220 -39 275 -4 30 -8 71 -11 90 -25 225 -25 919 1 1082
2 13 6 53 10 90 3 37 8 77 10 90 2 13 6 41 10 63 44 308 143 677 235 880 193
429 401 714 690 946 160 129 427 264 610 309 229 57 325 67 565 65 110 -2 211
-5 225 -8z"/>
<path d="M28567 24615 c-1 -1 -60 -5 -132 -9 -135 -6 -176 -11 -260 -26 -27
-5 -64 -12 -81 -15 -50 -8 -214 -52 -289 -78 -566 -195 -1025 -626 -1344
-1264 -33 -67 -70 -146 -82 -175 -11 -29 -27 -66 -34 -83 -27 -58 -114 -331
-143 -450 -27 -107 -36 -148 -57 -260 -5 -25 -17 -100 -40 -245 -2 -14 -6 -52
-10 -85 -4 -33 -8 -73 -10 -90 -5 -39 -17 -203 -21 -285 -4 -92 -4 -514 1
-580 2 -30 6 -100 9 -155 3 -55 8 -111 10 -125 2 -14 7 -54 11 -90 3 -36 8
-80 11 -97 11 -85 15 -112 24 -163 5 -30 11 -66 14 -80 9 -58 48 -229 72 -316
194 -730 586 -1328 1098 -1673 41 -28 78 -51 82 -51 4 0 15 -6 23 -14 9 -8 57
-34 106 -59 254 -128 503 -198 830 -234 74 -8 437 -7 502 1 27 3 66 9 88 11
541 70 1008 313 1353 705 113 129 113 128 189 235 154 216 295 484 384 726
101 275 177 586 214 869 3 25 8 56 10 70 4 22 9 69 21 194 24 250 24 867 0
1051 -3 17 -7 62 -11 100 -3 39 -8 81 -9 95 -7 56 -18 134 -21 149 -1 9 -8 50
-15 91 -17 105 -73 348 -104 455 -102 348 -237 642 -419 915 -114 171 -188
262 -327 400 -104 104 -144 140 -205 185 -22 17 -42 32 -45 36 -9 10 -174 115
-225 143 -134 75 -355 160 -510 198 -106 26 -86 22 -285 53 -19 3 -89 8 -155
11 -66 3 -141 6 -168 8 -26 1 -48 2 -50 1z m303 -380 c568 -79 987 -351 1326
-862 41 -61 74 -113 74 -116 0 -3 18 -37 40 -75 74 -132 193 -423 236 -580 48
-176 87 -342 99 -429 3 -21 9 -51 12 -68 3 -16 7 -41 9 -55 1 -14 7 -61 13
-105 30 -230 36 -347 36 -700 0 -274 -8 -489 -20 -550 -2 -11 -7 -47 -10 -80
-2 -33 -7 -69 -9 -80 -2 -11 -7 -47 -11 -80 -6 -50 -21 -132 -51 -285 -10 -51
-54 -217 -78 -295 -150 -496 -434 -952 -756 -1217 -179 -148 -407 -267 -627
-328 -456 -126 -982 -85 -1383 108 -546 262 -972 871 -1160 1657 -39 164 -62
283 -75 390 -4 28 -8 57 -10 65 -3 8 -7 50 -10 92 -3 43 -8 88 -10 100 -25
125 -24 917 0 1048 1 8 6 47 9 85 4 39 9 84 12 100 2 17 6 46 9 65 2 19 8 60
14 90 6 30 13 69 16 85 5 33 12 68 20 105 3 14 7 34 9 45 2 11 9 40 16 65 7
25 14 55 16 67 2 12 25 85 49 162 189 587 506 1037 920 1306 163 107 389 201
570 239 36 8 160 28 215 35 70 9 416 7 490 -4z"/>
<path d="M35447 24614 c-1 -1 -67 -4 -147 -8 -80 -3 -163 -8 -185 -11 -611
-85 -1106 -373 -1486 -865 -245 -316 -431 -693 -549 -1113 -22 -77 -42 -150
-44 -161 -2 -12 -12 -57 -21 -101 -23 -109 -21 -99 -40 -221 -10 -60 -19 -117
-20 -126 -2 -9 -7 -48 -10 -85 -4 -37 -8 -79 -10 -91 -27 -171 -28 -931 0
-1162 2 -19 7 -60 10 -90 13 -108 60 -391 75 -450 5 -19 11 -46 14 -60 3 -14
12 -52 21 -85 9 -33 19 -70 21 -82 10 -51 107 -329 150 -429 135 -317 305
-593 504 -819 263 -299 593 -519 953 -635 96 -32 230 -66 291 -75 21 -3 48 -7
60 -10 183 -38 575 -39 826 0 475 72 866 270 1205 610 247 248 462 575 605
920 18 44 39 94 46 110 61 147 172 565 199 750 3 23 7 50 9 60 2 11 7 45 11
75 4 30 9 62 10 70 1 8 6 49 10 90 4 41 9 89 11 105 24 234 24 923 -1 1054 -1
9 -6 52 -10 95 -4 43 -8 86 -10 95 -1 9 -6 43 -10 76 -14 111 -15 116 -51 295
-112 560 -330 1047 -642 1440 -87 109 -255 279 -357 361 -135 109 -338 230
-490 294 -16 7 -41 18 -55 23 -121 51 -350 111 -490 127 -25 3 -56 8 -70 11
-14 2 -74 7 -135 10 -60 3 -129 6 -153 8 -23 1 -43 1 -45 0z m263 -377 c14 -3
48 -8 75 -12 28 -3 103 -20 168 -36 440 -111 789 -369 1079 -794 51 -76 74
-113 146 -246 90 -164 204 -474 260 -709 40 -167 60 -266 78 -395 3 -27 8 -59
10 -70 2 -10 6 -49 10 -85 3 -36 8 -74 10 -85 18 -95 26 -794 11 -975 -24
-292 -66 -558 -123 -778 -39 -153 -39 -151 -47 -172 -3 -8 -18 -53 -32 -100
-15 -47 -33 -98 -40 -115 -7 -16 -30 -70 -51 -120 -113 -272 -295 -552 -485
-746 -159 -163 -299 -265 -492 -358 -195 -95 -378 -149 -562 -167 -33 -3 -76
-7 -95 -10 -45 -5 -304 -5 -350 1 -19 2 -61 7 -93 10 -32 3 -82 10 -110 16
-29 6 -63 13 -76 15 -72 15 -188 51 -276 87 -233 94 -387 198 -576 386 -309
309 -541 741 -674 1258 -19 73 -37 146 -40 163 -3 17 -12 61 -19 98 -8 37 -17
85 -20 107 -4 23 -8 50 -10 60 -2 11 -7 47 -10 80 -14 120 -18 150 -21 175
-25 169 -25 941 0 1070 2 10 6 53 10 96 3 43 8 86 10 94 2 8 7 35 10 60 58
441 208 888 413 1235 40 68 158 236 193 277 13 15 49 55 79 90 118 137 308
291 471 382 129 73 363 161 483 182 17 3 49 9 71 14 22 5 74 11 115 15 41 3
76 8 78 10 6 6 392 -2 422 -8z"/>
<path d="M12583 24437 c-3 -4 -5 -1440 -5 -3190 l0 -3182 204 0 203 0 2 1520
c0 836 1 1523 2 1526 1 3 661 6 1469 7 807 0 1475 1 1485 1 16 1 17 14 15 173
l-3 171 -1485 1 -1484 1 0 1307 c0 719 3 1310 6 1313 3 4 746 6 1651 6 1542 0
1646 1 1650 17 4 15 2 318 -2 332 -2 8 -3703 6 -3708 -3z"/>
<path d="M17580 24443 c0 -1 21 -86 46 -188 25 -102 47 -193 49 -203 2 -9 14
-55 25 -102 12 -47 23 -92 25 -100 2 -8 22 -87 44 -175 45 -180 201 -812 206
-835 2 -8 11 -44 20 -80 9 -36 18 -75 21 -88 8 -39 213 -864 225 -907 6 -22
13 -50 15 -62 3 -13 34 -141 70 -285 36 -145 67 -270 69 -279 4 -18 73 -300
170 -689 36 -146 68 -276 71 -290 3 -14 14 -61 25 -105 12 -44 22 -87 24 -95
2 -8 44 -179 94 -380 49 -201 144 -585 210 -855 105 -425 129 -520 136 -545 1
-3 7 -30 14 -61 l14 -56 248 0 249 0 6 26 c3 14 12 46 19 71 7 25 48 180 89
345 42 165 117 458 167 650 49 193 92 359 94 370 3 11 31 124 64 250 33 127
85 329 116 450 31 121 74 290 96 375 22 85 42 162 44 170 55 222 179 703 186
726 5 17 11 40 13 51 4 17 77 304 207 808 48 184 248 985 254 1015 2 8 12 54
24 102 11 48 23 98 25 110 3 13 7 32 10 43 5 19 43 187 52 230 3 11 8 36 12
55 14 61 36 49 50 -27 16 -87 103 -475 143 -640 17 -71 32 -136 34 -146 2 -10
7 -27 10 -37 3 -10 7 -27 10 -37 2 -10 17 -74 35 -143 30 -119 35 -136 44
-177 2 -10 34 -135 71 -278 37 -143 69 -267 71 -275 3 -16 110 -430 175 -680
22 -85 63 -243 90 -350 28 -107 61 -238 75 -290 14 -52 52 -201 85 -330 34
-129 83 -320 110 -425 28 -104 52 -201 55 -215 2 -14 9 -38 14 -55 10 -34 120
-461 125 -487 2 -9 13 -50 24 -90 11 -40 45 -172 76 -293 31 -121 69 -269 85
-330 16 -60 49 -191 75 -290 25 -99 50 -196 56 -216 l9 -36 252 1 252 1 13 45
c7 25 15 54 17 65 4 22 12 53 157 645 110 445 149 607 154 630 2 8 8 35 15 60
7 25 14 52 15 60 2 8 27 110 55 225 29 116 53 217 55 225 2 8 22 89 44 179 23
91 43 174 45 185 3 12 29 120 59 241 31 121 76 306 102 410 25 105 48 201 52
215 3 14 7 32 9 40 1 8 7 31 13 50 9 30 127 508 136 550 4 21 67 279 111 455
20 77 38 151 40 164 3 13 22 94 44 180 21 86 64 257 94 381 66 270 158 647
260 1059 41 167 73 307 71 310 -5 9 -442 8 -450 -1 -4 -3 -11 -24 -16 -45 -10
-42 -36 -154 -73 -313 -13 -58 -54 -233 -91 -390 -37 -157 -69 -295 -71 -308
-3 -13 -18 -81 -35 -150 -17 -70 -44 -185 -60 -257 -17 -71 -32 -138 -35 -147
-5 -24 -7 -30 -44 -193 -18 -77 -40 -174 -50 -215 -17 -70 -67 -287 -75 -320
-2 -8 -11 -46 -20 -85 -9 -38 -19 -80 -21 -92 -2 -12 -27 -117 -54 -233 -27
-116 -52 -221 -54 -233 -4 -22 -161 -693 -197 -847 -11 -47 -22 -94 -25 -105
-2 -11 -19 -87 -39 -170 -19 -82 -47 -199 -61 -260 -14 -60 -27 -117 -29 -125
-19 -81 -27 -117 -30 -130 -1 -8 -8 -33 -13 -55 -6 -22 -13 -51 -16 -65 -2
-14 -14 -63 -25 -110 -11 -47 -22 -96 -25 -110 -3 -14 -23 -108 -46 -210 -22
-102 -42 -196 -45 -210 -3 -14 -7 -34 -9 -45 -14 -62 -79 -372 -81 -385 -10
-72 -18 -100 -31 -100 -8 0 -14 2 -14 4 0 2 -18 82 -41 177 -23 96 -42 181
-44 189 -2 8 -15 62 -29 120 -31 131 -71 299 -97 410 -11 47 -22 92 -24 100
-2 8 -15 65 -29 125 -25 107 -66 272 -141 560 -20 77 -59 228 -86 335 -28 107
-52 202 -54 210 -2 8 -18 69 -35 135 -17 66 -54 208 -81 315 -28 107 -52 202
-54 210 -2 8 -13 49 -24 90 -11 41 -47 181 -80 310 -33 129 -96 377 -141 550
-44 173 -108 421 -141 550 -33 129 -69 269 -80 310 -34 128 -90 344 -94 360
-2 8 -13 53 -25 100 -12 47 -23 92 -25 100 -2 8 -17 67 -33 130 -17 63 -54
205 -82 315 -29 110 -54 202 -57 205 -2 3 -110 5 -239 5 -226 0 -234 0 -241
-20 -3 -11 -14 -54 -25 -95 -10 -41 -21 -82 -23 -90 -5 -21 -98 -384 -151
-590 -25 -96 -47 -182 -49 -190 -2 -8 -13 -51 -25 -95 -11 -44 -23 -88 -25
-98 -7 -30 -96 -379 -122 -477 -13 -52 -27 -106 -29 -120 -3 -14 -11 -45 -19
-70 -12 -40 -50 -185 -60 -233 -2 -10 -18 -73 -35 -140 -18 -67 -33 -129 -35
-137 -2 -8 -34 -132 -70 -275 -73 -280 -161 -624 -275 -1070 -39 -154 -98
-386 -132 -515 -33 -129 -61 -242 -63 -250 -2 -8 -21 -85 -43 -170 -38 -145
-67 -266 -157 -655 -20 -88 -61 -263 -91 -388 -30 -125 -54 -230 -54 -232 0
-11 -31 -4 -35 8 -4 10 -136 645 -151 727 -3 14 -7 32 -9 40 -2 8 -7 31 -10
50 -3 19 -8 43 -11 52 -5 18 -11 46 -19 93 -3 17 -8 38 -11 47 -3 9 -7 27 -9
39 -3 13 -14 68 -26 123 -11 56 -22 108 -24 116 -2 8 -8 33 -13 55 -6 22 -13
51 -16 65 -11 52 -46 207 -126 545 -45 193 -83 357 -85 365 -2 8 -31 132 -64
275 -34 143 -66 280 -71 305 -6 25 -21 90 -35 145 -20 82 -40 170 -70 305 -2
8 -15 63 -29 123 -14 59 -28 118 -30 130 -3 12 -23 101 -46 197 -23 96 -43
182 -45 190 -3 14 -16 68 -66 285 -11 50 -22 97 -24 105 -2 8 -15 65 -29 125
-15 61 -29 121 -32 135 -7 34 -108 466 -144 616 -16 66 -31 131 -34 145 -2 13
-12 56 -21 94 -9 39 -18 75 -19 80 -3 14 -29 129 -31 135 -1 3 -11 48 -24 100
l-22 95 -230 0 c-126 0 -229 -1 -229 -2z"/>
<path d="M40274 24441 c-2 -2 -4 -1439 -4 -3192 l0 -3187 958 3 c526 2 971 5
987 8 17 3 64 8 105 11 41 4 82 9 90 11 8 2 38 7 65 10 28 3 82 12 120 20 461
94 788 236 1122 487 127 94 357 325 454 454 219 292 383 640 478 1021 52 205
88 405 106 588 3 33 8 83 11 110 14 141 21 710 10 825 -2 25 -7 83 -11 130 -6
73 -29 273 -39 335 -2 11 -7 40 -10 65 -57 370 -197 768 -374 1070 -320 545
-848 938 -1497 1115 -52 14 -105 28 -118 31 -71 15 -239 45 -277 50 -25 2 -52
7 -60 9 -8 2 -49 7 -90 10 -41 3 -102 8 -135 12 -67 7 -1884 11 -1891 4z
m1701 -355 c94 -3 181 -7 195 -10 14 -2 52 -7 85 -11 86 -9 121 -14 153 -20
15 -3 54 -10 87 -15 212 -33 535 -147 736 -261 70 -39 218 -135 229 -148 3 -3
28 -24 55 -45 180 -141 380 -392 503 -631 111 -217 221 -538 257 -755 3 -19 8
-42 10 -50 3 -8 7 -31 9 -50 3 -19 7 -48 10 -65 9 -53 15 -99 21 -155 3 -30 8
-68 10 -85 25 -203 26 -913 1 -1040 -2 -11 -7 -56 -11 -99 -4 -43 -8 -87 -10
-96 -2 -10 -6 -35 -9 -56 -38 -243 -122 -560 -192 -722 -42 -101 -124 -258
-180 -347 -296 -472 -824 -816 -1440 -940 -80 -16 -185 -34 -234 -40 -30 -3
-66 -8 -80 -10 -127 -19 -1486 -29 -1497 -11 -5 7 -8 5561 -4 5648 1 13 12 18
49 20 74 5 1057 0 1247 -6z"/>
<path d="M3682 15204 c-78 -14 -154 -39 -230 -78 -212 -109 -393 -378 -448
-669 -2 -12 -6 -33 -9 -47 -8 -40 -19 -199 -18 -275 1 -196 30 -373 82 -503
143 -357 395 -546 741 -557 250 -8 437 59 596 215 119 117 230 317 259 469 2
12 6 30 9 39 6 19 14 73 23 152 8 69 8 319 0 385 -44 361 -197 634 -435 774
-68 40 -189 86 -257 97 -71 11 -240 10 -313 -2z m259 -218 c92 -13 221 -85
280 -157 148 -178 211 -406 204 -729 -1 -85 -5 -162 -8 -170 -3 -8 -8 -33 -11
-55 -7 -54 -40 -170 -65 -228 -65 -152 -186 -272 -319 -318 -225 -78 -466 -8
-601 174 -63 86 -127 229 -146 327 -35 180 -38 374 -11 560 31 212 135 407
266 504 117 86 244 115 411 92z"/>
<path d="M20649 15209 c-19 -4 -47 -10 -64 -12 -158 -27 -350 -157 -461 -313
-85 -119 -159 -299 -179 -435 -4 -24 -8 -46 -10 -49 -14 -23 -22 -294 -12
-415 41 -489 322 -847 708 -902 106 -15 288 -8 372 16 74 20 182 69 238 108
201 138 349 415 386 723 12 99 8 385 -6 470 -40 237 -126 426 -261 573 -144
157 -328 236 -559 240 -65 2 -133 -1 -152 -4z m230 -223 c88 -12 190 -64 255
-130 49 -50 96 -108 96 -120 0 -5 6 -17 13 -25 36 -42 100 -242 114 -354 17
-139 8 -430 -17 -516 -5 -17 -7 -31 -5 -31 8 0 -56 -172 -82 -218 -92 -168
-227 -267 -395 -289 -249 -31 -449 80 -568 317 -46 94 -68 172 -96 345 -8 48
-8 281 0 348 50 434 278 692 600 680 27 -1 65 -4 85 -7z"/>
<path d="M0 14145 c0 -676 3 -1025 10 -1026 6 0 57 -1 115 -1 58 0 112 1 121
1 14 1 15 67 11 709 -3 389 -7 727 -10 752 -4 25 -9 85 -12 134 -3 50 -8 93
-11 98 -3 4 -1 8 4 8 5 0 24 -39 41 -87 18 -49 36 -97 41 -108 5 -11 102 -261
216 -555 114 -294 225 -580 246 -635 22 -55 46 -118 54 -140 l14 -40 83 2 c45
0 93 2 107 2 23 1 30 13 74 129 26 70 54 141 61 157 7 17 59 149 115 295 56
146 106 274 111 285 5 11 29 74 54 140 25 66 52 134 60 152 8 17 15 34 15 38
0 4 23 68 51 143 28 75 57 156 66 179 9 24 20 40 24 37 5 -3 7 -8 5 -12 -4 -7
-10 -83 -22 -267 -11 -170 -11 -1405 0 -1412 8 -5 182 -8 239 -4 9 1 12 213
12 1026 l0 1025 -169 -2 -169 -3 -29 -75 c-16 -41 -34 -84 -38 -95 -5 -11 -38
-94 -74 -185 -64 -164 -99 -253 -223 -570 -36 -91 -87 -226 -115 -300 -27 -74
-55 -148 -62 -165 -7 -16 -25 -65 -41 -108 -15 -43 -31 -75 -35 -70 -5 4 -28
67 -53 138 -97 282 -181 498 -527 1360 l-28 70 -166 3 -166 2 0 -1025z"/>
<path d="M5780 14145 c0 -969 1 -1025 18 -1026 80 -4 601 0 652 5 317 32 492
117 652 316 75 93 153 267 178 395 6 33 13 71 16 85 10 51 13 357 4 418 -30
200 -61 296 -137 424 -102 172 -266 299 -460 358 -130 39 -230 48 -585 49
l-338 2 0 -1026z m679 790 c327 -39 520 -244 571 -605 5 -36 7 -139 5 -230 -2
-136 -7 -182 -28 -261 -36 -136 -86 -230 -166 -309 -107 -107 -225 -160 -408
-185 -36 -5 -245 -8 -354 -6 l-36 1 0 798 c0 438 4 799 8 802 12 8 335 4 408
-5z"/>
<path d="M8388 15158 c-7 -23 -3 -2026 5 -2034 11 -12 1317 -11 1318 1 1 14 1
187 0 205 -1 13 -66 15 -530 14 -478 -1 -530 1 -533 15 -2 9 -3 171 -3 361 l1
345 471 3 470 2 0 109 -1 109 -450 1 c-248 0 -460 0 -471 1 -20 0 -20 6 -18
317 1 175 2 323 2 328 1 7 173 10 509 9 279 0 513 2 520 4 8 3 12 35 12 113
l0 109 -649 0 c-510 0 -650 -3 -653 -12z"/>
<path d="M10765 14144 l0 -1027 110 0 c61 1 119 2 130 2 20 1 20 6 20 427 0
244 4 428 9 431 13 8 527 6 567 -2 55 -11 95 -33 128 -70 44 -51 90 -146 106
-221 45 -219 166 -562 199 -565 39 -3 286 -3 286 -1 0 2 -14 29 -31 60 -66
120 -111 247 -164 457 -36 143 -64 235 -85 274 -32 59 -94 126 -138 150 -24
13 -21 31 4 31 26 0 106 59 162 118 93 100 140 231 140 390 0 223 -112 409
-301 502 -134 65 -163 68 -682 69 l-461 1 1 -1026z m885 786 c188 -45 281
-157 289 -346 6 -149 -67 -279 -189 -336 -78 -36 -121 -41 -425 -42 l-300 -2
0 371 0 371 285 -1 c198 -1 302 -6 340 -15z"/>
<path d="M13309 15148 c-1 -31 -1 -1896 0 -1973 l1 -60 122 2 c68 1 126 2 130
2 8 1 2 1366 -6 1461 -14 165 -17 210 -13 210 3 0 41 -64 85 -142 44 -79 89
-159 99 -178 72 -127 402 -707 433 -760 21 -36 87 -150 146 -255 59 -104 120
-212 136 -240 16 -27 34 -60 40 -72 6 -13 17 -23 25 -24 7 0 67 -1 133 -1 66
0 126 1 133 1 10 1 12 207 12 1026 l0 1025 -130 0 -131 0 1 -682 c2 -681 4
-754 31 -950 3 -21 1 -38 -5 -38 -5 0 -67 102 -137 228 -70 125 -135 241 -145
257 -9 17 -77 136 -151 265 -73 129 -221 389 -328 577 l-195 343 -142 0 c-141
0 -143 0 -144 -22z"/>
<path d="M17368 15163 c-3 -7 -2 -1992 1 -2033 1 -12 20 -15 113 -13 62 1 120
2 129 2 14 1 16 49 15 467 -1 301 3 468 9 472 6 4 218 7 473 7 l462 0 1 -45
c0 -25 0 -237 -1 -472 0 -340 2 -428 12 -429 7 0 66 -1 131 -2 111 -2 117 -1
118 18 0 11 1 473 2 1028 l2 1007 -133 0 -132 0 0 -417 c1 -230 1 -430 1 -444
l-1 -26 -472 1 -472 1 0 443 0 442 -127 0 c-70 0 -129 -3 -131 -7z"/>
<path d="M22722 14145 c0 -866 2 -1025 14 -1026 60 -4 218 -3 231 2 15 5 16
59 16 575 0 500 -6 786 -18 904 -8 81 -16 234 -11 230 2 -3 25 -59 49 -125 25
-66 91 -239 147 -385 57 -146 111 -285 120 -310 65 -169 284 -728 290 -740 7
-14 78 -17 201 -11 11 1 25 24 42 69 31 82 113 292 252 647 59 149 108 275
109 280 2 6 8 24 15 40 42 103 86 220 137 363 57 157 75 192 68 135 -6 -59
-13 -174 -20 -308 -7 -136 -13 -1340 -7 -1360 2 -6 53 -10 131 -9 l127 2 1
1026 1 1026 -167 0 -167 0 -16 -37 c-34 -77 -412 -1046 -499 -1278 -49 -132
-93 -246 -98 -255 -8 -13 -9 -13 -14 0 -4 14 -24 70 -97 278 -45 128 -141 376
-279 722 -67 168 -145 365 -173 437 l-52 133 -166 0 -167 0 0 -1025z"/>
<path d="M25830 14145 c0 -813 3 -1025 13 -1026 16 -1 1288 -1 1305 0 9 1 12
30 12 111 l0 110 -27 1 c-16 0 -255 1 -533 2 l-505 2 -2 363 -1 362 469 0
c368 0 469 3 470 13 0 6 1 55 2 107 l1 95 -459 2 c-253 1 -465 2 -471 3 -8 0
-11 92 -10 328 l1 327 518 0 c284 0 518 2 518 5 1 3 2 53 3 113 l2 107 -653 0
-653 0 0 -1025z"/>
<path d="M29570 14143 l0 -1028 130 0 130 0 0 463 0 462 450 0 450 0 0 110 0
110 -450 0 -450 0 2 343 3 342 500 0 500 0 1 113 1 112 -633 0 -634 0 0 -1027z"/>
<path d="M31819 15148 c0 -13 -1 -315 -1 -673 -1 -629 3 -779 22 -845 5 -16 9
-34 10 -38 5 -39 28 -101 63 -172 117 -234 361 -361 667 -346 175 8 268 31
374 90 188 105 305 306 332 571 4 40 8 1103 5 1373 l-1 62 -130 0 -130 0 -1
-677 c0 -373 -2 -691 -3 -708 -16 -165 -69 -289 -161 -374 -47 -43 -126 -87
-172 -96 -15 -2 -39 -7 -53 -10 -57 -13 -176 -6 -242 15 -63 19 -140 67 -182
114 -52 58 -97 154 -122 261 -6 23 -11 575 -14 1448 l0 27 -130 0 c-128 0
-130 0 -131 -22z"/>
<path d="M34502 14145 c0 -768 3 -1025 11 -1026 7 0 63 -1 125 -2 93 -2 115 1
121 13 4 8 6 203 5 433 l-1 417 36 1 c143 4 517 -1 544 -6 129 -28 179 -104
252 -384 67 -255 151 -470 184 -472 20 -1 252 -1 266 0 6 1 -13 49 -42 108
-63 127 -100 238 -147 434 -57 238 -99 318 -211 396 l-29 21 39 16 c98 41 205
156 251 271 68 168 50 396 -44 541 -87 134 -195 205 -377 250 -16 5 -244 9
-506 11 l-477 4 0 -1026z m868 790 c14 -3 36 -8 49 -11 68 -14 158 -78 201
-142 38 -58 52 -109 55 -197 6 -186 -89 -317 -265 -365 -45 -13 -622 -22 -639
-10 -4 3 -8 169 -8 370 l1 366 290 -2 c160 -1 302 -5 316 -9z"/>
<path d="M37049 15163 c-1 -5 -2 -466 -3 -1026 -1 -898 1 -1017 14 -1018 23
-1 192 -1 221 0 l25 1 -2 688 c-1 378 -4 710 -7 737 -10 91 -19 250 -14 245 6
-6 157 -272 205 -360 19 -36 46 -82 59 -102 12 -21 23 -39 23 -42 0 -2 38 -69
85 -150 47 -80 85 -147 85 -150 0 -2 18 -34 40 -70 22 -36 40 -68 40 -71 0 -3
9 -18 19 -33 10 -15 100 -171 200 -347 100 -176 185 -326 190 -334 7 -11 39
-14 143 -13 73 0 138 1 143 1 7 1 10 349 10 1024 l-1 1022 -131 3 -132 3 4
-718 c2 -395 5 -729 8 -743 3 -14 8 -54 11 -90 4 -36 8 -77 10 -92 4 -33 -19
-39 -29 -8 -6 19 -71 135 -355 635 -81 143 -157 276 -167 295 -11 19 -29 51
-40 70 -11 19 -69 121 -128 225 -60 105 -121 213 -137 240 -15 28 -45 80 -66
117 l-37 68 -142 0 c-79 0 -143 -3 -144 -7z"/>
<path d="M39743 14145 c0 -928 2 -1025 16 -1026 65 -4 229 -1 237 3 5 4 9 411
9 1025 l0 1018 -131 3 -131 3 0 -1026z"/>
<path d="M40989 15160 c0 -5 0 -48 0 -95 0 -47 0 -93 0 -103 1 -16 22 -17 306
-17 l305 0 0 -65 c1 -36 1 -446 1 -912 l0 -848 22 -1 c27 -1 218 -1 232 0 7 1
10 312 10 914 l0 912 303 0 c263 0 302 2 303 15 4 45 4 187 1 198 -5 16 -1482
18 -1483 2z"/>
<path d="M43445 14463 c1 -390 5 -733 9 -763 24 -183 88 -322 201 -435 105
-106 178 -142 355 -180 72 -15 268 -13 360 3 131 24 248 83 339 174 91 89 142
184 183 340 21 81 22 100 25 826 l4 742 -130 0 c-72 0 -131 -3 -132 -7 0 -5
-2 -327 -3 -718 -3 -688 -4 -712 -24 -788 -12 -43 -34 -102 -49 -130 -38 -71
-116 -147 -184 -181 -52 -25 -191 -55 -235 -51 -234 22 -376 138 -429 352 -24
99 -24 110 -25 826 l-1 697 -132 0 -133 0 1 -707z"/>
<path d="M46130 14146 c0 -564 3 -1026 8 -1027 4 0 62 -2 130 -2 l122 -2 0
433 c0 404 1 432 18 433 87 4 539 -1 564 -6 59 -12 118 -54 152 -108 41 -66
57 -112 96 -267 17 -69 47 -172 66 -230 36 -108 99 -249 112 -251 41 -4 275
-2 278 2 2 4 -10 33 -27 65 -66 124 -146 359 -174 513 -10 55 -45 163 -67 208
-25 51 -117 148 -150 159 -16 5 -8 12 41 37 122 63 219 188 256 332 15 55 21
212 12 275 -24 154 -150 322 -290 389 -135 64 -135 64 -664 69 l-483 3 0
-1025z m900 780 c185 -48 285 -185 274 -373 -8 -128 -58 -221 -150 -282 -89
-59 -148 -67 -494 -66 l-265 0 -3 360 c-1 198 0 365 2 370 2 7 98 10 287 9
230 -1 296 -4 349 -18z"/>
<path d="M48670 14145 c0 -969 1 -1025 18 -1026 9 0 307 -1 662 -2 l645 0 3
111 c2 86 0 112 -10 113 -7 0 -247 1 -533 2 l-520 2 -1 363 -2 362 468 0 c437
0 468 1 472 18 2 9 3 58 3 107 l-1 90 -414 2 c-228 1 -440 2 -471 3 l-57 0 1
325 c0 229 3 325 11 326 6 1 241 2 521 3 l510 1 0 113 1 112 -653 0 -653 0 0
-1025z"/>
</g>
</svg>
